<svg enable-background="new 0 0 19 19" viewBox="0 0 19 19" xmlns="http://www.w3.org/2000/svg"><g fill="#fa42ca"><path d="m19 5.7c-.1-1.8-.6-3-1.6-4s-2.2-1.5-4-1.6c-1.2-.1-2.3-.1-3.4-.1h-.3-.7c-1.1 0-2.2 0-3.3.1-1.8.1-3 .6-4 1.6s-1.5 2.2-1.6 4c-.1 1.1-.1 2.2-.1 3.3v1c0 1.1 0 2.2.1 3.4.1 1.8.6 3 1.6 4s2.2 1.5 4 1.6h3.3.2.7.4c1 0 2 0 3-.1 1.8-.1 3-.6 4-1.6s1.5-2.2 1.6-4c.1-1.1.1-2.2.1-3.3v-1c0-1.1 0-2.2 0-3.3zm-2.1 4.2v.3 2.1c0 1.2-.2 2.1-.3 2.6-.2.4-.3.7-.6 1s-.6.5-1 .6c-.5.2-1.4.3-2.6.4-.8 0-1.5 0-2.1 0-.2 0-.5 0-.7 0s-.4 0-.7 0c-.6 0-1.4 0-2.1 0-1.2 0-2.1-.2-2.6-.4-.4-.2-.7-.3-1-.6s-.5-.6-.6-1c-.2-.5-.3-1.4-.4-2.6 0-.7 0-1.5 0-2.1 0-.2 0-.5 0-.7s0-.4 0-.7c0-.6 0-1.4 0-2.1 0-1.2.2-2.1.3-2.6.2-.4.3-.7.6-1s.6-.5 1-.6c.5-.2 1.4-.3 2.6-.4h2.1.7s.4 0 .7 0h2.1c1.2 0 2.1.2 2.6.4.4.2.7.3 1 .6s.5.6.6 1c.2.5.3 1.4.3 2.6v2.1.3.4s.1.3.1.4z"/><path d="m9.5 4.5c-2.8 0-5 2.2-5 5s2.2 5 5 5 5-2.2 5-5c0-2.7-2.2-5-5-5zm2.8 5c0 1.6-1.3 2.8-2.8 2.8-1.6 0-2.8-1.3-2.8-2.8 0-1.6 1.3-2.8 2.8-2.8 1.6 0 2.8 1.2 2.8 2.8z"/><path d="m14.5 3.2c-.8 0-1.4.6-1.4 1.4s.6 1.4 1.4 1.4 1.4-.6 1.4-1.4-.7-1.4-1.4-1.4z"/></g></svg>