<svg xmlns="http://www.w3.org/2000/svg" viewBox="0 0 1305.3 14.1"><clipPath id="prefix__a"><path d="M0 0h1305.3v14.1H0z"/></clipPath><linearGradient id="prefix__b" x1="0" x2="1305.315" y1="7.027" y2="7.027" gradientUnits="userSpaceOnUse"><stop offset="0" stop-color="#09a6dc"/><stop offset=".214" stop-color="#35368f"/><stop offset=".383" stop-color="#e71788"/><stop offset=".566" stop-color="#ea2f30"/><stop offset=".779" stop-color="#fbe727"/><stop offset=".905" stop-color="#049d54"/><stop offset="1" stop-color="#09a6dc"/></linearGradient><path fill="url(#prefix__b)" d="m448.2 0-21 14.1h-6.3l21-14.1zm33.2 0-21 14.1h1.6L483 0zm-51.9 0-21 14.1h6.3l21-14.1zm24.6 0-21 14.1h6.5l21-14.1zm39.6 0-21 14.1h1.6l21-14.1zm-27.2 0-21 14.1h6.5L473 0zM368 0l-21 14.1h6.3l21-14.1zm49.2 0-21 14.1h6.3l21-14.1zm-61.6 0-21 14.1h6.5l21-14.1zm24.7 0-21 14.1h6.3l21-14.1zm24.6 0-21 14.1h6.3l21-14.1zm-12.3 0-21 14.1h6.3L399 0zm150 0-21 14.1h1.6l21-14.1zm49.5 0-21 14.1h1.6l21-14.1zM506 0l-21 14.1h1.6l21-14.1zm98.4 0-21 14.1h1.6L606 0zm12.3 0-21 14.1h1.6l21-14.1zm36.7 0-21 14.1h1.8l21-14.1zm-12.1 0-21 14.1h1.6l21-14.1zM629 0l-21 14.1h1.6l21-14.1zm-98.6 0-21 14.1h1.4l21-14.1zM343.3 0l-21 14.1h6.5l21-14.1zm175 0-21 14.1h1.6l21-14.1zm36.6 0-21 14.1h1.6l21-14.1zm12.3 0-21 14.1h1.6l21-14.1zm12.3 0-21 14.1h1.6L581 0zM62.6 0l-21 14.1H43L64 0zm49.2 0-21 14.1h1.6l21-14.1zM87.2 0l-21 14.1h1.6L88.8 0zm36.9 0-21 14.1h1.6l21-14.1zM99.5 0l-21 14.1H80L101 0zm36.9 0-21 14.1h1.6L138 0zm22.1 0-20.9 14.1h6.3L165 0zm-12.1 0-21 14.1h6.2l21-14.1zM25.7 0l-21 14.1H6L27.1 0zM38 0 17 14.1h1.4L39.4 0zM13.2 0 0 8.8v.9L14.6 0zm37.1 0-21 14.1h1.4L51.7 0zm615.6 0-21 14.1h1.6l21-14.1zm-591 0-21 14.1h1.4L76.3 0zm120.7 0-21 14.1h6.3L202 0zm61.5 0-21 14.1h6.5l21-14.1zm12.3 0-21 14.1h6.5l21-14.1zM294 0l-21 14.1h6.5l21-14.1zm-12.3 0-21 14.1h6.5l21-14.1zm24.6 0-21 14.1h6.5l21-14.1zm12.3 0-21 14.1h6.5l21-14.1zM170.8 0 150 14.1h6.3l21-14.1zM331 0l-21 14.1h6.5l21-14.1zM183.1 0l-20.9 14.1h6.3l21-14.1zm37.1 0-21 14.1h6.3l21-14.1zm-12.3 0-21 14.1h6.3l21-14.1zm24.6 0-21 14.1h6.5L239 0zm12.3 0-21 14.1h6.5l21-14.1zm874.6 0-21 14.1h6.3l21-14.1zm-24.8 0-21 14.1h6.5l21-14.1zm12.3 0-21 14.1h6.5l21-14.1zm26.9 0-21 14.1h1.6l21-14.1zm37.9 0h-1.1l-21 14.1h1.6l21-14.1zm-13.3 0-21 14.1h1.6L1160 0zm-12.3 0-21 14.1h1.6l21-14.1zm-113.2 0-21 14.1h6.3l21-14.1zm49.2 0-21 14.1h6.3l21-14.1zm-61.5 0-21 14.1h6.3l21-14.1zm24.6 0-21 14.1h6.3l21-14.1zm24.6 0-21 14.1h6.3l21-14.1zm-12.3 0-21 14.1h6.3l21-14.1zm187.1 0-21 14.1h1.6l21-14.1zm12.3 0-21 14.1h1.6l21-14.1zm12.3 0-21 14.1h1.6l21-14.1zm24.4 0-21 14.1h1.8l21-14.1zm-12.1 0-21 14.1h1.6l21-14.1zm23.8 8.8-7.9 5.2h1.6l6.4-4.3v-.9zM1183 0l-21 14.1h1.6l21-14.1zM678.2 0l-21 14.1h1.6l21-14.1zm517.1 0-21 14.1h1.6l21-14.1zm12.1 0-21 14.1h1.4l21-14.1zm12.2 0-21 14.1h1.6l21-14.1zm12.7 0-21 14.1h1.6l21-14.1zm-224 0-21 14.1h6.3l21-14.1zm297 .5L1285 14.1h1.6l18.7-12.5zM789.1 0l-21 14.1h1.8l21-14.1zm9.9 0-21 14.1h6.2l21-14.1zm-22.4 0-21 14.1h1.6l21-14.1zm-12.3 0-21 14.1h1.6l21-14.1zm47.1 0-21 14.1h6.3l21-14.1zm12.3 0-21 14.1h6.3L830 0zm-96.3 0-21 14.1h1.6L729 0zm-12.3 0-21 14.1h1.6l21-14.1zm-12.3 0-21 14.1h1.6l21-14.1zM752 0l-21 14.1h1.6l21-14.1zm-61.5 0-21 14.1h1.6l21-14.1zm49.2 0-21 14.1h1.6l21-14.1zM996 0l-21 14.1h6.3l21-14.1zM836 0l-21 14.1h6.3l21-14.1zm123.1 0-21 14.1h6.3l21-14.1zm-36.9 0-21 14.1h6.3l21-14.1zm12.3 0-21 14.1h6.3l21-14.1zm12.3 0-21 14.1h6.3l21-14.1zm36.9 0-21 14.1h6.3L990 0zm-12.3 0-21 14.1h6.3l21-14.1zm-98.6 0-21 14.1h6.5l21-14.1zm-12.3 0-21 14.1h6.5L867 0zm49.4 0-21 14.1h6.3l21-14.1zm-61.6 0-21 14.1h6.3l21-14.1zm49.3 0-21 14.1h6.3l21-14.1zm-12.5 0-21 14.1h6.5l21-14.1z" clip-path="url(#prefix__a)"/></svg>