<svg xmlns="http://www.w3.org/2000/svg" viewBox="0 0 441.6 151.5"><linearGradient id="prefix__a" x1="105.609" x2="417.328" y1="3.43" y2="183.402" gradientUnits="userSpaceOnUse"><stop offset="0" stop-color="#fddd3e"/><stop offset=".156" stop-color="#f38634"/><stop offset=".327" stop-color="#ec2e31"/><stop offset=".5" stop-color="#ec148a"/><stop offset=".671" stop-color="#812e8f"/><stop offset=".842" stop-color="#34378f"/><stop offset="1" stop-color="#0263ab"/></linearGradient><path fill="#fddd3e" d="M0 151.5V0h187.9z"/><path fill="url(#prefix__a)" d="M33 151.5H20.1L208.1 0H221zM253.9 0H241L53.1 151.5H66zm33 0H274L86.1 151.5H99zm33 0H307L119.1 151.5H132zm33 0H340L152.1 151.5H165zm33 0H373L185.1 151.5H198zm33 0H406L218.1 151.5H231zm22.7 0H439L251.1 151.5H264L441.6 8.3zm0 24.5-157.5 127H297L441.6 34.9m0 16.2L317.1 151.5H330l111.6-90m0 16.2-91.5 73.8H363l78.6-63.4m0 16.2-58.5 47.2H396l45.6-36.8m0 16.2-25.5 20.6H429l12.6-10.2"/></svg>