<svg viewBox="0 0 586.2 232.1" xmlns="http://www.w3.org/2000/svg"><path d="m10 2945v-55h149c83 0 152-3 154-7 2-5-9-62-24-128-16-66-37-151-45-190-29-127-51-220-140-604l-69-294 75-68 75-69h188 187v55 55h-146-146l7 33c7 32 48 207 85 362 10 44 31 130 45 190 35 150 78 332 119 504 39 163 43 142-39 232l-35 39h-220-220zm5242-6c-40-45-51-65-47-82 14-59 159-679 170-727 7-30 34-145 60-255s48-207 48-215c2-13-21-15-145-18l-148-3v-54-55h193l192 1 74 68 74 67-21 90c-12 49-31 130-42 179-11 50-32 137-45 195-69 293-96 409-105 445-37 154-70 297-70 305 0 5 66 11 153 12l152 3 3 53 3 52-223-1-223-1zm-3907-8-70-48-3-625-2-625 59-51 59-52h176 175l65 42 66 42v633 632l-72 51-71 50h-156-156zm295-671v-621l-67 3-68 3-3 618-2 617h70 70zm822 663 3-58 153-3 152-3v-664-665h105 105v665 664l153 3 152 3 3 58 3 57h-416-416zm1533 8-70-48-3-625-2-625 59-51 59-52h179l178 1 60 42 60 43 3 632 2 631-71 51-72 50h-156-156zm295-671v-621l-67 3-68 3-3 618-2 617h70 70zm-4290-950c0-20 7-20 2885-20s2885 0 2885 20-7 20-2885 20-2885 0-2885-20zm1136-215c-46-16-99-65-122-113-12-25-15-54-12-103 3-57 8-74 34-106 70-89 212-120 319-69 85 40 125 103 125 196 0 88-43 154-125 191-49 22-162 25-219 4zm159-69c46-20 75-69 75-129 0-88-46-137-130-137s-130 49-130 137c0 107 89 169 185 129zm1307 63c-62-31-90-97-62-150 15-28 79-57 162-74 82-18 118-37 118-64 0-68-179-65-196 3-6 24-11 26-55 26-59 0-69-15-42-62 47-83 210-115 320-64 100 47 113 154 24 201-15 7-69 24-119 36-52 12-98 29-107 39-15 17-15 20 4 39 16 16 34 21 71 21 43 0 52-4 72-30 19-26 28-30 71-30h50l-7 33c-12 64-79 97-196 97-46 0-77-6-108-21zm492 2c-53-24-74-55-74-106 0-64 51-100 169-120 51-8 107-30 116-45 11-18-4-46-31-58-58-27-146-4-164 43-8 22-16 25-60 25-46 0-50-2-50-24 0-33 46-85 95-107 51-24 170-25 223-3 82 34 116 96 88 156-21 44-60 64-169 89-119 26-141 45-99 82 38 34 152 13 152-29 0-10 14-14 56-14h56l-7 28c-9 37-32 61-80 83-54 25-166 25-221 0zm822 12c-26-7-87-46-108-69-49-57-61-156-27-230 38-79 118-124 223-124 100 0 181 44 220 118 54 105 13 230-93 285-45 22-67 27-125 26-39-1-80-4-90-6zm143-79c76-30 104-145 53-213-29-40-61-52-120-48-73 5-113 43-120 115-6 69 19 119 72 143 50 23 65 23 115 3zm1661 74c-55-30-66-104-21-149 85-84 217 36 139 126-27 31-82 41-118 23zm99-34c29-37 27-78-6-109-35-32-63-32-97 0-28 26-33 59-15 99 20 43 87 49 118 10zm-89-50c0-32 4-53 10-49 5 3 7 12 3 20-8 23 16 18 39-7l20-23-6 24c-2 13 0 31 7 41 15 25-7 50-44 50-28 0-29-1-29-56zm60 27c0-6-5-13-10-16-15-9-43 3-35 15 8 13 45 13 45 1zm-5790-146v-206l58 3 57 3 2 60c1 33 2 66 2 73 1 8 25 12 86 12 65 0 95 5 123 19 95 49 96 173 2 221-34 17-59 20-185 20h-145zm268 119c30-20 30-68 0-88-15-11-45-16-85-16h-63v60 60h63c40 0 70-5 85-16zm226 73c-2-7-3-98-2-202l3-190h55 55l3 78 3 77h68c84 0 109-16 117-75 12-89 9-85 70-85 48 0 55 2 50 18-3 9-10 44-15 77-8 45-17 65-37 81-27 22-27 22-5 33 25 14 51 61 51 94 0 30-32 73-70 92-39 20-338 22-346 2zm284-73c26-18 28-50 5-76-13-14-31-18-95-18h-78v55 55h73c49 0 80-5 95-16zm812 81c0-3-1-94-1-202v-198h53 53l3 83 3 82h99 100v35 35h-98c-54 0-101 2-103 4-2 3-3 25-1 50l4 46h114 114v35 35h-170c-93 0-170-2-170-5zm455-8c-3-7-4-98-3-202l3-190 188-3 187-2v40 40h-130-130v50 49l118 3 117 3v30 30l-117 3-118 3v44 45h131 130l-3 33-3 32-183 3c-143 2-184 0-187-11zm1485-192v-205h55 55v205 205h-55-55zm832 3 3-203h49 48l-1 128c-1 74 2 127 7 127 6 0 54-58 107-130l97-130h54 54v205 205h-50-49l-3-132-3-133-100 133-100 132h-58-57zm658 116c-22-48-40-88-40-90 0-1-22-50-50-109-27-59-50-111-50-116 0-6 23-9 53-7 51 3 53 4 71 46l19 42h92 91l22-45c21-44 22-45 72-45 33 0 50 4 50 13 0 6-13 39-28 72-16 33-55 120-87 193l-58 132h-58-59zm128-91c12-28 22-56 22-62 0-7-23-11-55-11s-55 4-55 11c0 5 8 29 19 52 10 23 21 51 25 61 8 24 17 14 44-51zm282-28v-205h175 175v40 40h-120-120v165 165h-55-55z" transform="matrix(.1 0 0 -.1 0 300)"/></svg>