<svg enable-background="new 0 0 13.2 11.7" viewBox="0 0 13.2 11.7" xmlns="http://www.w3.org/2000/svg"><path d="m6.6 11.7c-.2 0-.4-.1-.5-.2l-5-5c-.7-.7-1.1-1.6-1.1-2.7s.4-2 1.1-2.7c.7-.7 1.7-1.1 2.7-1.1s2 .4 2.7 1.1l.1.1.1-.1c.3-.3.8-.6 1.2-.8.9-.4 2-.4 2.9 0 .5.2.9.5 1.2.8.4.4.6.8.8 1.2.2.5.3 1 .3 1.5s-.1 1-.3 1.5-.5.9-.8 1.2l-5 5c0 .2-.2.2-.4.2zm-2.8-10.2c-.6 0-1.2.2-1.7.7-.4.4-.7 1-.7 1.7 0 .6.2 1.2.7 1.7l4.4 4.4 4.5-4.5c.2-.2.4-.5.5-.8s.2-.6.2-.9-.1-.6-.2-.9-.2-.5-.5-.7c-.2-.2-.5-.4-.8-.5-.6-.2-1.2-.2-1.8 0-.2.1-.4.3-.7.5l-.6.6c-.3.3-.8.3-1.1 0l-.5-.6c-.5-.5-1-.7-1.7-.7z" fill="#212529"/></svg>