<svg enable-background="new 0 0 441.6 151.5" viewBox="0 0 441.6 151.5" xmlns="http://www.w3.org/2000/svg" xmlns:xlink="http://www.w3.org/1999/xlink"><linearGradient id="a" gradientUnits="userSpaceOnUse" x1="105.6085" x2="417.3283" y1="3.4301" y2="183.4016"><stop offset="0" stop-color="#fddd3e"/><stop offset=".1563" stop-color="#f38634"/><stop offset=".3269" stop-color="#ec2e31"/><stop offset=".5005" stop-color="#ec148a"/><stop offset=".6712" stop-color="#812e8f"/><stop offset=".8418" stop-color="#34378f"/><stop offset="1" stop-color="#0263ab"/></linearGradient><path d="m0 151.5v-151.5h187.9z" fill="#fddd3e"/><path d="m33 151.5h-12.9l188-151.5h12.9zm220.9-151.5h-12.9l-187.9 151.5h12.9zm33 0h-12.9l-187.9 151.5h12.9zm33 0h-12.9l-187.9 151.5h12.9zm33 0h-12.9l-187.9 151.5h12.9zm33 0h-12.9l-187.9 151.5h12.9zm33 0h-12.9l-187.9 151.5h12.9zm22.7 0h-2.6l-187.9 151.5h12.9l177.6-143.2zm0 24.5-157.5 127h12.9l144.6-116.6m0 16.2-124.5 100.4h12.9l111.6-90m0 16.2-91.5 73.8h12.9l78.6-63.4m0 16.2-58.5 47.2h12.9l45.6-36.8m0 16.2-25.5 20.6h12.9l12.6-10.2" fill="url(#a)"/></svg>