<svg enable-background="new 0 0 63.1 43.3" viewBox="0 0 63.1 43.3" xmlns="http://www.w3.org/2000/svg"><path d="m53.7.5c1.3.2 4.1.2 6.4 2.7 0 0 2 1.7 2.6 6.2.8 5 .5 9.9.5 9.9v4.7s0 5-.5 9.9c-.5 4.2-2.6 6.2-2.6 6.2-2.3 2.5-5.1 2.5-6.4 2.5 0 0-8.9.7-22.2.7-16.4-.2-21.5-.7-21.5-.7-1.5-.2-4.6-.2-6.9-2.7 0 0-2-2-2.6-6.2-.8-5-.5-9.9-.5-9.9v-4.5s0-5 .5-9.9c.5-4.2 2.6-6.2 2.6-6.2 2.3-2.5 5.1-2.5 6.4-2.7 0 0 8.9-.5 22.2-.5s22 .5 22 .5z" fill="#212529" opacity=".8"/><path d="m25.1 29.7v-17.4l17.3 8.7z" fill="#fff"/></svg>