<svg enable-background="new 0 0 27 21.3" viewBox="0 0 27 21.3" xmlns="http://www.w3.org/2000/svg"><g fill="#212529"><path d="m26 3.3c-.6-.6-1.4-.9-2.2-.9h-4.1c0-.6-.3-1.2-.7-1.7-.4-.4-1-.7-1.7-.7h-7.6c-.7 0-1.3.3-1.8.7-.4.4-.7 1-.7 1.7h-4c-.9 0-1.6.3-2.2.9-.7.6-1 1.4-1 2.2v12.6c0 .9.3 1.6.9 2.2s1.4.9 2.2.9h20.7c.9 0 1.6-.3 2.2-.9s.9-1.4.9-2.2v-12.6c.1-.8-.2-1.6-.9-2.2zm-24.4 2.2c0-.4.2-.8.4-1.1.4-.2.7-.4 1.1-.4h4.9c.5 0 .8-.4.8-.8v-.7c.1-.3.2-.5.3-.6.2-.2.4-.2.6-.2h7.6c.2 0 .5.1.6.2.2.2.2.4.2.6v.7c0 .5.4.8.9.8h4.9c.4 0 .8.2 1.1.4.3.3.4.7.4 1.1v12.5.2c0 .4-.2.8-.4 1.1-.3.3-.7.4-1.1.4h-20.8c-.4 0-.8-.2-1.1-.4-.3-.3-.4-.7-.4-1.1z"/><path d="m13.5 18.2c1.7 0 3.3-.7 4.5-1.9s1.9-2.8 1.9-4.5-.7-3.3-1.9-4.5-2.8-1.9-4.5-1.9-3.3.7-4.5 1.9-1.9 2.8-1.9 4.5.7 3.3 1.9 4.5c1.2 1.3 2.8 1.9 4.5 1.9zm-4.7-6.3c0-1.2.5-2.4 1.4-3.3s2.1-1.4 3.3-1.4 2.4.5 3.3 1.4 1.4 2.1 1.4 3.3c0 1.2-.5 2.4-1.4 3.3s-2.1 1.4-3.3 1.4-2.4-.5-3.3-1.4-1.4-2.1-1.4-3.3z"/><path d="m22.5 8.2c.8 0 1.4-.6 1.4-1.4s-.6-1.4-1.4-1.4-1.4.6-1.4 1.4.7 1.4 1.4 1.4z"/></g></svg>