<svg enable-background="new 0 0 23.8 23.1" viewBox="0 0 23.8 23.1" xmlns="http://www.w3.org/2000/svg"><g fill="#212529"><path d="m7.7 17.8c-1.5 0-2.7 1.2-2.7 2.7s1.2 2.7 2.7 2.7 2.7-1.2 2.7-2.7-1.3-2.7-2.7-2.7zm1.1 2.7c0 .6-.5 1.1-1.1 1.1s-1.1-.5-1.1-1.1.5-1.1 1.1-1.1 1.1.5 1.1 1.1z"/><path d="m17.9 17.8c-1.5 0-2.7 1.2-2.7 2.7s1.2 2.7 2.7 2.7 2.7-1.2 2.7-2.7-1.2-2.7-2.7-2.7zm1.1 2.7c0 .6-.5 1.1-1.1 1.1s-1.1-.5-1.1-1.1.5-1.1 1.1-1.1 1.1.5 1.1 1.1z"/><path d="m23.6 3.7c-.2-.2-.4-.3-.6-.3l-17.4-.2-.4-1.4c-.4-1-1.4-1.8-2.6-1.8h-1.8c-.4 0-.8.4-.8.8s.4.8.8.8h1.8c.5 0 .9.3 1.1.8l3.4 10.3-.2.5c-.4.8-.3 1.8.2 2.5.5.8 1.3 1.2 2.2 1.2h10.5c.4 0 .8-.4.8-.8s-.4-.8-.8-.8h-10.5c-.4 0-.7-.2-.9-.5s-.2-.7-.1-1.1l.2-.3 11.2-1.2c1.3-.1 2.5-1.1 2.8-2.5l1.3-5.4c0-.1 0-.4-.2-.6zm-1.6 1.3-1.1 4.5c-.2.7-.7 1.2-1.4 1.2l-11 1.1-2.4-7.1z"/></g></svg>