<svg enable-background="new 0 0 18.6 15.5" viewBox="0 0 18.6 15.5" xmlns="http://www.w3.org/2000/svg"><g fill="#212529"><path d="m17.9 10.1h-4.7c-.4 0-.8.3-.8.8s.3.8.8.8h1.6v3.1c0 .4.3.8.8.8s.8-.3.8-.8v-3.1h1.6c.4 0 .8-.3.8-.8s-.5-.8-.9-.8z"/><path d="m5.4 8.6h-4.6c-.5 0-.8.3-.8.7s.3.8.8.8h1.6v4.7c0 .4.3.8.8.8s.8-.3.8-.8v-4.7h1.6c.4 0 .8-.3.8-.8s-.6-.7-1-.7z"/><path d="m9.3 7c-.4 0-.7.3-.7.8v7c0 .4.3.8.8.8s.8-.3.8-.8v-7c-.1-.5-.5-.8-.9-.8z"/><path d="m11.6 3.9h-1.6v-3.1c.1-.5-.3-.8-.7-.8s-.7.3-.7.8v3.1h-1.6c-.4 0-.8.3-.8.8s.4.7.8.7h2.3s0 0 0 0h2.3c.4 0 .8-.3.8-.8s-.3-.7-.8-.7z"/><path d="m15.5 8.5c.4 0 .8-.3.8-.8v-7c0-.4-.3-.8-.8-.8s-.8.3-.8.8v7c.1.5.4.8.8.8z"/><path d="m3.1 6.9c.4 0 .8-.3.8-.8v-5.3c-.1-.5-.4-.8-.8-.8s-.8.3-.8.8v5.4c0 .4.4.7.8.7z"/></g></svg>