<svg enable-background="new 0 0 27.8 24.4" viewBox="0 0 27.8 24.4" xmlns="http://www.w3.org/2000/svg"><path d="m13.9 24.4c-.2 0-.4-.1-.6-.3l-11-11c-1.5-1.5-2.3-3.4-2.3-5.4s.8-4 2.3-5.4c1.5-1.5 3.4-2.3 5.5-2.3s4 .8 5.4 2.3l.7.7.7-.7c.7-.7 1.6-1.3 2.5-1.7 1.9-.8 4-.8 5.9 0 .9.4 1.8 1 2.5 1.7.7.7 1.3 1.6 1.7 2.5s.6 1.9.6 2.9-.2 2-.6 3c-.4.9-1 1.8-1.7 2.5l-11 11c-.1.1-.3.2-.6.2zm-6.1-22.6c-1.6 0-3.1.6-4.2 1.7s-1.8 2.6-1.8 4.2.6 3.1 1.7 4.2l10.4 10.4 10.4-10.4c.6-.6 1-1.2 1.3-1.9s.5-1.5.5-2.3-.2-1.5-.5-2.3c-.3-.7-.7-1.4-1.3-1.9-.6-.6-1.2-1-1.9-1.3-1.5-.6-3.1-.6-4.6 0-.7.3-1.4.7-1.9 1.3l-1.3 1.3c-.4.4-.9.4-1.3 0l-1.3-1.3c-1.1-1.1-2.6-1.7-4.2-1.7z" fill="#212529"/></svg>