<svg enable-background="new 0 0 21.1 22.6" viewBox="0 0 21.1 22.6" xmlns="http://www.w3.org/2000/svg"><g fill="#212529"><path d="m6.9 10c.7.6 1.6 1 2.5 1.2.4.1.7.1 1.1.1.6 0 1.1-.1 1.7-.3.9-.3 1.7-.8 2.3-1.4.7-.7 1.1-1.5 1.4-2.3.3-.9.3-1.8.1-2.7s-.6-1.8-1.2-2.5-1.3-1.3-2.2-1.6c-.6-.3-1.4-.5-2.1-.5-.4 0-.7 0-1.1.1-1.1.2-2.1.8-2.9 1.5-.8.8-1.3 1.8-1.5 2.9-.3 1.1-.1 2.2.3 3.3.3.8.9 1.6 1.6 2.2zm-.1-5.9c.3-.7.8-1.4 1.5-1.8s1.4-.7 2.2-.7h.4c.9.1 1.8.5 2.4 1.2.5.5.8 1.1 1 1.7s.2 1.3.1 2-.4 1.3-.8 1.8-.9.9-1.5 1.1c-.5.2-1 .3-1.5.3-.6 0-1.2-.2-1.6-.4-.5-.2-1-.5-1.4-.8-.6-.6-1-1.3-1.1-2.1s0-1.6.3-2.3z"/><path d="m18.9 14.9c-.7-.7-1.4-1.2-2.3-1.6s-1.8-.5-2.7-.5h-6.8c-.9 0-1.9.2-2.7.5-.9.4-1.7.9-2.3 1.5-.7.7-1.2 1.5-1.6 2.3-.3.9-.5 1.9-.5 2.8v2c0 .1 0 .2.1.3s.1.2.2.3c.2.1.4.2.6.2s.4-.1.6-.2c.1-.1.1-.2.2-.3 0-.1.1-.2.1-.3v-2c0-1.5.6-2.9 1.6-3.9.3-.6 1-1 1.6-1.3s1.4-.4 2.1-.4h6.7c.7 0 1.5.1 2.1.4.7.3 1.3.7 1.8 1.2s.9 1.1 1.2 1.8.4 1.4.4 2.1v2c0 .1 0 .2.1.3s.1.2.2.2c.2.1.4.2.6.2s.4-.1.6-.2c.1-.1.1-.2.2-.3 0-.1.1-.2.1-.3v-2c0-.9-.2-1.9-.6-2.7-.4-.7-.9-1.5-1.6-2.1z"/></g></svg>