<svg enable-background="new 0 0 14.5 14.5" viewBox="0 0 14.5 14.5" xmlns="http://www.w3.org/2000/svg"><g fill="#212529"><path d="m7.2 0c-3.9 0-7.2 3.3-7.2 7.2s3.3 7.2 7.2 7.2 7.3-3.3 7.3-7.2-3.3-7.2-7.3-7.2zm0 13c-3.2 0-5.8-2.6-5.8-5.7s2.6-5.8 5.8-5.8 5.8 2.6 5.8 5.7-2.6 5.8-5.8 5.8z"/><path d="m9.7 4.8c-.3-.3-.7-.3-1 0l-1.5 1.4-1.4-1.4c-.3-.3-.8-.3-1.1 0s-.3.8 0 1.1l1.4 1.4-1.3 1.4c-.3.3-.3.7 0 1 .1.1.3.2.5.2s.4-.1.5-.2l1.4-1.4 1.4 1.4c.2.2.4.2.6.2s.4-.1.5-.2c.3-.3.3-.7 0-1l-1.4-1.5 1.4-1.4c.3-.3.3-.7 0-1z"/></g></svg>