<?xml version="1.0" encoding="utf-8"?>
<!-- Generator: Adobe Illustrator 26.1.0, SVG Export Plug-In . SVG Version: 6.00 Build 0)  -->
<svg version="1.1" id="Layer_1" xmlns="http://www.w3.org/2000/svg" xmlns:xlink="http://www.w3.org/1999/xlink" x="0px" y="0px"
	 viewBox="0 0 20.4 20.4" style="enable-background:new 0 0 20.4 20.4;" xml:space="preserve">
<path d="M11.6,10.2l8.5-8.5c0.4-0.4,0.4-1,0-1.4s-1-0.4-1.4,0l-8.5,8.5L1.7,0.3c-0.4-0.4-1-0.4-1.4,0s-0.4,1,0,1.4l8.5,8.5l-8.5,8.5
	c-0.4,0.4-0.4,1,0,1.4c0.2,0.2,0.5,0.3,0.7,0.3s0.5-0.1,0.7-0.3l8.5-8.5l8.5,8.5c0.2,0.2,0.5,0.3,0.7,0.3s0.5-0.1,0.7-0.3
	c0.4-0.4,0.4-1,0-1.4L11.6,10.2z"/>
</svg>
