<svg enable-background="new 0 0 1305.3 14.1" viewBox="0 0 1305.3 14.1" xmlns="http://www.w3.org/2000/svg" xmlns:xlink="http://www.w3.org/1999/xlink"><clipPath id="a"><path d="m0 0h1305.3v14.1h-1305.3z"/></clipPath><linearGradient id="b" gradientUnits="userSpaceOnUse" x1=".000031" x2="1305.3153" y1="7.0268" y2="7.0268"><stop offset="0" stop-color="#09a6dc"/><stop offset=".2143" stop-color="#35368f"/><stop offset=".3833" stop-color="#e71788"/><stop offset=".5657" stop-color="#ea2f30"/><stop offset=".7794" stop-color="#fbe727"/><stop offset=".905" stop-color="#049d54"/><stop offset="1" stop-color="#09a6dc"/></linearGradient><path clip-path="url(#a)" d="m448.2 0-21 14.1h-6.3l21-14.1zm33.2 0-21 14.1h1.6l21-14.1zm-51.9 0-21 14.1h6.3l21-14.1zm24.6 0-21 14.1h6.5l21-14.1zm39.6 0-21 14.1h1.6l21-14.1zm-27.2 0-21 14.1h6.5l21-14.1zm-98.5 0-21 14.1h6.3l21-14.1zm49.2 0-21 14.1h6.3l21-14.1zm-61.6 0-21 14.1h6.5l21-14.1zm24.7 0-21 14.1h6.3l21-14.1zm24.6 0-21 14.1h6.3l21-14.1zm-12.3 0-21 14.1h6.3l21.1-14.1zm150 0-21 14.1h1.6l21-14.1zm49.5 0-21 14.1h1.6l21-14.1zm-86.1 0-21 14.1h1.6l21-14.1zm98.4 0-21 14.1h1.6l21-14.1zm12.3 0-21 14.1h1.6l21-14.1zm36.7 0-21 14.1h1.8l21-14.1zm-12.1 0-21 14.1h1.6l21-14.1zm-12.3 0-21 14.1h1.6l21-14.1zm-98.6 0-21 14.1h1.4l21-14.1zm-187.1 0-21 14.1h6.5l21-14.1zm175 0-21 14.1h1.6l21-14.1zm36.6 0-21 14.1h1.6l21-14.1zm12.3 0-21 14.1h1.6l21-14.1zm12.3 0-21 14.1h1.6l20.9-14.1zm-516.9 0-21 14.1h1.4l21-14.1zm49.2 0-21 14.1h1.6l21-14.1zm-24.6 0-21 14.1h1.6l21-14.1zm36.9 0-21 14.1h1.6l21-14.1zm-24.6 0-21 14.1h1.5l21-14.1zm36.9 0-21 14.1h1.6l21-14.1zm22.1 0-20.9 14.1h6.3l21.1-14.1zm-12.1 0-21 14.1h6.2l21-14.1zm-120.7 0-21 14.1h1.3l21.1-14.1zm12.3 0-21 14.1h1.4l21-14.1zm-24.8 0-13.2 8.8v.9l14.6-9.7zm37.1 0-21 14.1h1.4l21-14.1zm615.6 0-21 14.1h1.6l21-14.1zm-591 0-21 14.1h1.4l21-14.1zm120.7 0-21 14.1h6.3l21.1-14.1zm61.5 0-21 14.1h6.5l21-14.1zm12.3 0-21 14.1h6.5l21-14.1zm24.6 0-21 14.1h6.5l21-14.1zm-12.3 0-21 14.1h6.5l21-14.1zm24.6 0-21 14.1h6.5l21-14.1zm12.3 0-21 14.1h6.5l21-14.1zm-147.8 0-20.8 14.1h6.3l21-14.1zm160.2 0-21 14.1h6.5l21-14.1zm-147.9 0-20.9 14.1h6.3l21-14.1zm37.1 0-21 14.1h6.3l21-14.1zm-12.3 0-21 14.1h6.3l21-14.1zm24.6 0-21 14.1h6.5l21-14.1zm12.3 0-21 14.1h6.5l21-14.1zm874.6 0-21 14.1h6.3l21-14.1zm-24.8 0-21 14.1h6.5l21-14.1zm12.3 0-21 14.1h6.5l21-14.1zm26.9 0-21 14.1h1.6l21-14.1zm37.9 0h-1.1l-21 14.1h1.6l21-14.1zm-13.3 0-21 14.1h1.6l21-14.1zm-12.3 0-21 14.1h1.6l21-14.1zm-113.2 0-21 14.1h6.3l21-14.1zm49.2 0-21 14.1h6.3l21-14.1zm-61.5 0-21 14.1h6.3l21-14.1zm24.6 0-21 14.1h6.3l21-14.1zm24.6 0-21 14.1h6.3l21-14.1zm-12.3 0-21 14.1h6.3l21-14.1zm187.1 0-21 14.1h1.6l21-14.1zm12.3 0-21 14.1h1.6l21-14.1zm12.3 0-21 14.1h1.6l21-14.1zm24.4 0-21 14.1h1.8l21-14.1zm-12.1 0-21 14.1h1.6l21-14.1zm23.8 8.8-7.9 5.2h1.6l6.4-4.3v-.9zm-122.3-8.8-21 14.1h1.6l21-14.1zm-504.8 0-21 14.1h1.6l21-14.1zm517.1 0-21 14.1h1.6l21-14.1zm12.1 0-21 14.1h1.4l21-14.1zm12.2 0-21 14.1h1.6l21-14.1zm12.7 0-21 14.1h1.6l21-14.1zm-224 0-21 14.1h6.3l21-14.1zm297 .5-20.3 13.6h1.6l18.7-12.5zm-516.2-.5-21 14.1h1.8l21-14.1zm9.9 0-21 14.1h6.2l21-14.1zm-22.4 0-21 14.1h1.6l21-14.1zm-12.3 0-21 14.1h1.6l21-14.1zm47.1 0-21 14.1h6.3l21-14.1zm12.3 0-21 14.1h6.3l21-14.1zm-96.3 0-21 14.1h1.6l21-14.1zm-12.3 0-21 14.1h1.6l21-14.1zm-12.3 0-21 14.1h1.6l21-14.1zm49.2 0-21 14.1h1.6l21-14.1zm-61.5 0-21 14.1h1.6l21-14.1zm49.2 0-21 14.1h1.6l21-14.1zm256.3 0-21 14.1h6.3l21-14.1zm-160 0-21 14.1h6.3l21-14.1zm123.1 0-21 14.1h6.3l21-14.1zm-36.9 0-21 14.1h6.3l21-14.1zm12.3 0-21 14.1h6.3l21-14.1zm12.3 0-21 14.1h6.3l21-14.1zm36.9 0-21 14.1h6.3l21-14.1zm-12.3 0-21 14.1h6.3l21-14.1zm-98.6 0-21 14.1h6.5l21-14.1zm-12.3 0-21 14.1h6.5l21-14.1zm49.4 0-21 14.1h6.3l21-14.1zm-61.6 0-21 14.1h6.3l21-14.1zm49.3 0-21 14.1h6.3l21-14.1zm-12.5 0-21 14.1h6.5l21-14.1z" fill="url(#b)"/></svg>