<svg enable-background="new 0 0 714.5 198" viewBox="0 0 714.5 198" xmlns="http://www.w3.org/2000/svg" xmlns:xlink="http://www.w3.org/1999/xlink"><clipPath id="a"><path d="m0 0h714.5v198h-714.5z"/></clipPath><linearGradient id="b" gradientUnits="userSpaceOnUse" x1="129.7875" x2="584.9625" y1="-127.6376" y2="327.5374"><stop offset="0" stop-color="#09a6dc"/><stop offset=".2" stop-color="#35368f"/><stop offset=".4" stop-color="#e71788"/><stop offset=".6" stop-color="#ea2f30"/><stop offset=".8" stop-color="#fbe727"/><stop offset="1" stop-color="#049d54"/></linearGradient><path clip-path="url(#a)" d="m304.4 0-198 198h-.9l198-198zm-23.4 0-198 198h3.7l198-198zm-56.1 0-198 198h3.7l198-198zm63.1 0-198 198h3.7l198-198zm43.4 0-198 198h.9l198-198zm-21 0-198 198h.9l198-198zm14 0-198 198h.8l198-198zm-7 0-198 198h.9l198-198zm-21 0-198 198h.9l198-198zm-22.4 0-198 198h3.6l198-198zm-42 0-198 198h3.6l198-198zm14 0-198 198h3.6l198-198zm204.6 0-198 198h.9l198-198zm-197.6 0-198 198h3.6l198-198zm14 0-198 198h3.6l198-198zm-7 0-198 198h3.6l198-198zm78.4 0-198 198h.9l198-198zm84.2 0-198 198h.9l198-198zm-7 0-198 198h.9l198-198zm-7 0-198 198h.9l198-198zm-7 0-198 198h.9l198-198zm42 0-198 198h.9l198-198zm-14 0-198 198h.9l198-198zm7 0-198 198h.9l198-198zm-49.2 0-198 198h.9l198-198zm-27.8 0-198 198h.9l198-198zm6.8 0-198 198h.9l198-198zm-14 0-198 198h.9l198-198zm28 0-198 198h.9l198-198zm-35 0-198 198h.9l198-198zm28 0-198 198h.9l198-198zm21 0-198 198h1l198-198zm-155.4 0-198 198h3.6l198-198zm-239 144.5 144.5-144.5h-3.6l-140.9 140.9zm0-21 123.5-123.5h-3.7l-119.8 119.9zm0 7 130.5-130.5h-3.7l-126.8 126.9zm0 7 137.5-137.5h-3.6l-133.9 133.9zm0-21 116.5-116.5h-3.7l-112.8 112.9zm0-7.1 109.4-109.4h-3.5l-105.9 105.9zm0-22.3 87.1-87.1h-.9l-86.2 86.2zm0 14 101.1-101.1h-.9l-100.2 100.2zm217.9-101.1-198 198h3.7l198-198zm-217.9 179.6 179.6-179.6h-3.7l-175.9 175.9zm0 7 186.6-186.6h-3.7l-182.9 182.9zm0 7 193.6-193.6h-3.7l-189.9 189.9zm0-35 158.6-158.6h-3.7l-154.9 154.9zm0-7.1 151.5-151.5h-3.6l-147.9 147.9zm0 21.1 172.6-172.6h-3.7l-168.9 168.9zm0-7 165.6-165.6h-3.7l-161.9 161.9zm0-71.5 94.1-94.1h-.9l-93.2 93.2zm0-91.1 3-3h-.9l-2.1 2.1zm0 7 10-10h-.9l-9.1 9.1zm0 7 17-17h-.9l-16.1 16.1zm210.9-17-198 198h3.7l198-198zm-210.9 24 24-24h-.9l-23.1 23.1zm203.9-24-198 198h3.7l198-198zm-7 0-196.9 196.9v1.1h2.6l198-198zm-196.9 59 59-59h-.8l-58.2 58.2zm0 7 66-66h-.8l-65.2 65.2zm0 7.1 73.1-73.1h-.9l-72.2 72.2zm0 7 80.1-80.1h-.9l-79.2 79.2zm0-49.1 31-31h-.9l-30.1 30.1zm0 21 52-52h-.8l-51.2 51.2zm0-14 38-38h-.8l-37.2 37.2zm0 7 45-45h-.8l-44.2 44.2zm714.5 109.4-43.6 43.6h3.7l39.9-39.9zm0-110.7-154.3 154.3h.8l153.5-153.5zm0 7-147.3 147.3h.8l146.5-146.5zm0-21.1-168.4 168.4h.9l167.5-167.5zm0 28.1-140.3 140.3h.8l139.5-139.5zm-25.1-57.7h-.6l-198 198h.6.3l198-198zm25.1 64.7-133.3 133.3h.8l132.5-132.5zm0 14-119.3 119.3h.9l118.4-118.4zm0-7-126.3 126.3h.9l125.4-125.4zm-4.9-71.7-198 198h.8l198-198zm4.9 85.7-112.3 112.3h.9l111.4-111.4zm-11.8-85.7-198 198h.9l198-198zm11.8 22.6-175.4 175.4h.9l174.5-174.5zm-18.8-22.6-198 198h.9l198-198zm18.8 15.6-182.4 182.4h.9l181.5-181.5zm0-14-196.4 196.4h.9l195.5-195.5zm0 7-189.4 189.4h.9l188.5-188.5zm0 28.1-161.3 161.3h.8l160.5-160.5zm0 138.7-22.6 22.6h3.7l18.9-18.9zm0-7-29.6 29.6h3.7l25.9-25.9zm0-7-36.6 36.6h3.7l32.9-32.9zm-1.6 36.6h1.6v-1.6zm1.6-50.6-50.6 50.6h3.6l47-47zm0 42-8.6 8.6h3.7l4.9-4.9zm0-7-15.6 15.6h3.7l11.9-11.9zm0-63-78.6 78.6h3.7l75-75v-3.6zm0-14-92.6 92.6h3.5l89.1-89.1zm0 35-57.6 57.6h3.6l54-54zm0-40.7-98.3 98.3h.9l97.4-97.4zm0 12.7-85.6 85.6h3.7l82-82v-3.6zm0 21-64.6 64.6h3.6l61-61zm0-40.7-105.3 105.3h.9l104.4-104.4zm0 33.7-71.6 71.6h3.7l68-68v-3.6zm-195.3-126.4-198 198h3.7l198-198zm7 0-198 198h3.7l198-198zm7.2 0-198 198h3.6l198-198zm148.3 0-198 198h.9l198-198zm-224.1 0-198 198h.9l198-198zm89.8 0-198 198h3.6l198-198zm-35.2 0-198 198h3.7l198-198zm49.2 0-198 198h3.6l198-198zm-7 0-198 198h3.6l198-198zm-70.2 0-198 198h3.6l198-198zm-12.6 0-198 198h1l198-198zm5.6 0-198 198h3.5l198-198zm-12.6 0-198 198h.9l198-198zm26.6 0-198 198h3.6l198-198zm77.2 0-198 198h3.6l198-198zm-70.2 0-198 198h3.6l198-198zm7 0-198 198h3.6l198-198zm35.2 0-198 198h3.6l198-198zm35 0-198 198h3.6l198-198zm70 0-198 198h3.7l198-198zm-7 0-198 198h3.6l198-198zm36.3 0-198 198h.9l198-198zm-15.3 0-198 198h3.7l198-198zm-28 0-198 198h3.6l198-198zm36.3 0-198 198h.9l198-198zm-15.3 0-198 198h3.7l198-198zm-63 0-198 198h3.6l198-198zm7 0-198 198h3.6l198-198zm-14 0-198 198h3.6l198-198zm21 0-198 198h3.6l198-198zm14 0-198 198h3.6l198-198zm7 0-198 198h3.6l198-198zm-14 0-198 198h3.6l198-198z" fill="url(#b)"/></svg>